<?xml version="1.0" encoding="UTF-8"?>
<svg id="Camada_2" data-name="Camada 2" xmlns="http://www.w3.org/2000/svg" viewBox="0 0 620.28 122.31">
  <defs>
    <style>
      .cls-1 {
        fill: #603813;
      }
    </style>
  </defs>
  <g id="Camada_1-2" data-name="Camada 1">
    <path class="cls-1" d="M283.1,46.59c-16.82,0-29.88,11.07-39.12,23.12v-1.56l-7.67-7.67h-9.58v60.61h17.25v-16.4c4.74-12.36,19.75-40.85,39.12-40.85,4.79,0,6.43,1.81,7.39,3.57,1.09,1.99,1.36,4.41,1.38,5.19v48.49h17.25v-48.46c0-1.46-.23-11.55-7.5-18.91-3.21-3.25-9.04-7.12-18.51-7.12Z"/>
    <path class="cls-1" d="M124.38,83.69c.12-14.89-2.67-24.7-8.79-30.87-4.04-4.07-9.39-6.22-15.48-6.22-8.08,0-16.05,2.06-23.58,6.03-4.49-3.29-10.89-5.83-19.98-5.83-15.83,0-29.74,8.92-39.81,20.85l-7.16-7.16H0v60.61h17.25v-13.23c0-8.14,4.85-19.54,12.08-28.35,8.06-9.83,17.98-15.47,27.22-15.47,1.65,0,4.51.04,6.19.68-7.7,7.75-15.63,16.98-18.7,26.38-3.91,11.99-2.16,21.8,4.83,26.9,2.79,2.04,6.24,3.09,9.92,3.09,1.78,0,3.61-.25,5.44-.75,4.72-1.29,13.49-5.42,19.21-18.66,4.08-9.46,4.82-21.63,3.11-34.76,4.2-1.92,8.76-3.08,13.56-3.08,1.87,0,2.66.54,3.23,1.12,1.18,1.19,3.9,5.37,3.79,18.59-.07,9.03,0,35.34,0,36.46l17.25-.05c0-.27-.07-27.33,0-36.27ZM68.4,94.78c-2.98,6.9-7.1,10.11-9.12,9.02-2.04-1.11-3.66-4.01,2.02-12.42,2.71-4.01,7.27-9.4,10.14-12.03.02,5.33-.96,10.62-3.04,15.44Z"/>
    <path class="cls-1" d="M603.32,48.37c0,33.76-20.85,48.49-32.83,72.73h34.38c-.64-33.86,14.64-37.85,15.4-72.73h-16.96Z"/>
    <path class="cls-1" d="M568.35,47.81c0,22.33-3.99,38.39-15.63,47.76-3.95,3.17-7.96,5.04-11.15,6.12l-16.93-53.88h-18.08l22.92,72.94,6.68-.35c1.38-.07,13.83-.98,26.39-10.62,20.64-15.83,24.97-42.44,24.97-61.97h-19.16Z"/>
    <path class="cls-1" d="M482.35,48.37v15.8c-4.72,12.33-19.75,40.9-39.14,40.9-4.79,0-6.43-1.81-7.39-3.57-1.09-1.99-1.36-4.41-1.38-5.19v-48.49h-17.25v48.46c0,1.46.23,11.55,7.5,18.91,3.21,3.25,9.04,7.12,18.51,7.12,16.83,0,29.9-11.08,39.14-23.15v21.93h17.25V56.04l-7.67-7.67h-9.58Z"/>
    <path class="cls-1" d="M390.7,7.67v39.63c-65.48,2.21-75.55,29.73-75.55,46.41,0,6.09,2.43,12.6,6.49,17.4,3.96,4.68,11.49,10.25,24.86,10.25h.03c21.73-.01,35.5-7.89,44.16-16.95v16.69h17.25V0h-9.58l-7.67,7.67ZM383.44,85.55c-4.68,7.71-19.36,18.54-36.92,18.55h-.02c-5.43,0-9.37-1.4-11.7-4.15-1.9-2.24-2.4-4.98-2.4-6.25,0-8.99,5.08-15.8,15.52-20.8,9.95-4.77,24.42-7.61,42.21-8.33-.79,6.16-2.48,14.05-6.68,20.97Z"/>
    <path class="cls-1" d="M212.72,85.94c4.83-11.47,3.56-22.19-3.48-29.4-11.13-11.4-32.08-10.8-47.37-10.37-2.38.07-4.62.13-6.47.13v17.25c2.1,0,4.46-.07,6.96-.14,10.73-.3,28.68-.81,34.54,5.18,2.86,2.93.66,8.9-.08,10.66-.27.63-.56,1.26-.88,1.9-8.2-3.57-19.02-5.84-33.31-5.93-12.84-.07-23.15,4.88-28.26,13.63-3.89,6.66-4,14.48-.3,20.93,4.23,7.37,12.62,11.6,23,11.6,16.86,0,31.64-7.09,42.11-16.74,0,.01.02.02.03.04,3.53,4.78,4.61,10.56,4.93,16.43h17.28c-.36-8.55-2.16-20.56-11.19-30.15.95-1.66,1.78-3.33,2.49-5.01ZM157.07,104.12c-3.98,0-6.98-1.1-8.04-2.95-.81-1.42-.2-2.89.24-3.64.7-1.2,3.69-5.07,13.01-5.07.08,0,.16,0,.23,0,8.35.06,15.45.93,21.27,2.6-7.17,5.33-16.45,9.06-26.71,9.06Z"/>
  </g>
</svg>