<?xml version="1.0" encoding="UTF-8"?>
<svg id="Camada_2" data-name="Camada 2" xmlns="http://www.w3.org/2000/svg" viewBox="0 0 422.59 422.59">
  <defs>
    <style>
      .cls-1 {
        fill: #603813;
      }

      .cls-2 {
        fill: #efefef;
      }
    </style>
  </defs>
  <g id="Camada_1-2" data-name="Camada 1">
    <rect class="cls-2" width="422.59" height="422.59"/>
    <g>
      <path class="cls-1" d="M119.97,262.98c3.41-1.84,3.36-1.9,2.64-5.28-.73-3.41-.34-7.07-.42-10.62-.02-1.04-.07-2.1.09-3.12.13-.78.57-1.52.77-2.01-.26-.9-.65-1.66-.66-2.43-.1-4.59-.12-9.19-.15-13.79-.02-2.9-.09-5.79.02-8.68.02-.61.81-1.15,1.12-1.79,1.2-2.5,2.25-5.07,3.54-7.52.79-1.5,1.91-2.83,2.91-4.22.61-.85,1.26-1.67,1.91-2.48.46-.58.94-1.16,1.45-1.69.27-.28.93-.48.92-.68-.24-3.12,3.07-4.37,3.68-7.03.3-1.33.72-2.64,1.08-3.96-.48-.36-.95-.71-1.43-1.07-.09.57-.06,1.2-.29,1.71-.68,1.46-1.71,2.8-2.16,4.32-.61,2.05-1.5,2.48-3.05,1.24-.22,1.34-.5,2.69-.65,4.05-.21,1.84-1.12,2.77-2.86,2.52-1.85,3.09-3.62,6.03-5.38,8.96-.2.03-.41.05-.61.08,0-.79-.32-2,.06-2.29,1.08-.81.6-1.53.47-2.48-.31-2.22-.41-4.47-.55-6.71-.06-.97-.07-1.96.03-2.93.08-.78-.58-2.21,1.28-1.83.01,0,.38-.96.25-1.07-3.11-2.56-1.75-5.85-1.59-8.97.04-.87-.01-1.83-.36-2.61-1.28-2.9-.12-4.82,3.22-4.94,1.54-.06,3.09.25,4.62.21,1.19-.03,2.38-.48,3.57-.48.99,0,1.96.45,2.96.59,1.69.24,3.4.4,5.1.57,1.9.19,1.99,1.11,1.39,2.7-.33.89-.78,2.11,1.08,2.62.79.21,1.17,1.92,1.72,2.96.26.48.48.99.64,1.31.65-.12,1.11-.17,1.56-.29.41-.12.87-.23,1.19-.49,3.07-2.43,6.04-4.92,8.77-7.78,2.64-2.77,6.01-4.85,9.1-7.2.43-.33,1.21-.76,1.53-.59,3.02,1.57,2.04-.93,2.2-1.69,4.29-1.95,8.31-3.78,13.05-5.93-.51,2-1.01,3.66-1.34,5.35-.32,1.63-.46,3.29-.68,4.94l.89.09c.22-1.38.06-3,.74-4.09,1.18-1.87.76-4,1.53-5.82.36-.85,1.68-1.49,2.7-1.82,2.65-.85,5.34-1.8,8.08-2.11,4.37-.49,8.79-.53,13.19-.68,1.26-.04,2.53.22,3.99.36.13.57.36,1.51.58,2.45.19,0,.38,0,.57,0,.26-.66.52-1.32.71-1.82,2.08.31,4.39.02,5.86,1,2.79,1.86,6.45,1.9,8.74,4.84,2,2.56,3.54,2.46,6.39.85.58-.33,1.32-.37,1.99-.55.3.37.6.74.91,1.11-1.06.49-2.12.98-3.18,1.47l.32.54c2.81-.79,5.62-1.59,8.43-2.38-.02-.29-.03-.58-.05-.87-1.02-.51-2.03-1.03-2.94-1.49,1.69-1.14,3.18-2.09,4.62-3.12,2.45-1.75,3.34-1.45,4.24,1.47.14.44.32,1.02.66,1.21.43.24,1.38.39,1.53.17,1.07-1.56,2-3.22,3.23-5.28.53.92.93,1.64,1.53,2.69.2-1.25.37-2.35.54-3.45h9.78c-.73,2.38-1.42,4.67-2.12,6.96.29.08.59.16.88.24.71-2.01,1.35-4.06,2.18-6.02.25-.6,1.24-1.48,1.54-1.36.92.36,2.46,1.39,2.35,1.73-.53,1.76,1.15,3.94-1.22,5.44-.67.43-.46,2.29-.57,3.51-.17,1.98-.27,3.97.12,6,1.4-5.31,2.79-10.61,4.19-15.92.28,0,.56,0,.84,0,.29,1.01.57,2.02,1.09,3.88.69-2.46,1.24-2.65,2.81-1.48,1.77,1.32,4.1,1.88,6.28,2.8-.49,1.88-3.64,3.57-.27,5.73.23-1.22.46-2.37.68-3.53.25-.03.51-.07.76-.1.24.57.78,1.19.69,1.71-.73,4.35-1.68,8.67-2.32,13.04-.21,1.48.3,3.07.5,4.83.65-.17,1.26-.34,2.52-.67-2.53,5.71-1.31,11.18-1.05,16.63.23.05.47.1.7.15.47-1.28.93-2.56,1.4-3.83.17,0,.34,0,.51,0,.09,1.42.21,2.83.26,4.25.1,2.63.36,5.28.17,7.9-.18,2.43,1.11,4.75.97,6.79-.23,3.21,1.95,5.74,1.5,8.81-.11.75.2,1.57.33,2.35.37,2.24.44,4.39,1.46,6.68,1.17,2.62.5,6.06.62,9.11,1.31,7.25,2.63,14.55,4.04,22.34h-6.95c-1.04-1.88-1.81-3.27-2.59-4.67-.23.08-.45.15-.68.23v4.11h-3.5c-.45-2.11-.9-4.26-1.39-6.56-.3.17-.72.4-1.3.71-.24-.66-.49-1.35-.8-2.19-.99,1.91-.76,1.69.33,2.85,1.09,1.16,1.65,2.82,2.58,4.49-1.66.43-2.64.92-3.58.84-.53-.04-1.02-.99-1.46-1.57-.35-.47-.61-1.01-.91-1.52-.21.13-.43.27-.64.4.22.86.44,1.72.79,3.05-1.55-.49-2.64-.83-3.73-1.17.2-.13.4-.27.6-.4-.3-1.25-.68-2.5-.89-3.77-.17-.99-.13-2.01-.19-3.01.25-.07.51-.15.76-.22.36.58.72,1.16,1,1.62.37-1.41.83-2.72,1-4.07.07-.55-.34-1.36-.79-1.74-2.68-2.2-1.32-5.16-1.52-7.79-.16-2.11.01-4.24.03-6.36,0-.33-.15-.76,0-.97,2.39-3.26.35-6.49.05-9.76-.36-3.95-1.12-8.12-.23-11.84,1.12-4.74-.09-9.26.24-13.85.05-.76.27-1.51.42-2.26l.68.03c.17.65.34,1.3.51,1.94,1.68-.1,1.45-7.26-.46-11.38-.44.79-.78,1.4-1.36,2.43-.84-2.2-1.57-4.1-2.02-5.3-1.23-1.33-2.07-2.21-2.88-3.11-.32-.36-.57-1.03-.92-1.08-2.73-.38-3.18-2.56-4.26-4.78-.31.85-.62,1.71-1,2.76-.45-.18-1-.4-1.31-.52.09-1.01.16-1.8.24-2.6-.25-.01-.5-.03-.76-.04-.88,1.01.28,3.44-2.16,3.22-.25-.02-.36-1.52-.66-2.9-.81,1.32-1.52,2.47-2.26,3.66-.22-.83-.46-1.75-.69-2.64-.98.91-1.83,1.71-2.82,2.63.18.21.51.58.95,1.09-.75.49-1.44.94-2.37,1.55.09-1.13.14-1.86.2-2.59-.22-.08-.44-.16-.66-.24-.55,1.34-1.11,2.68-1.9,4.58-.26-1.35-.41-2.1-.56-2.85-1.51,3.58-3.83,6.65-2,11.09,1.41,3.43,1.1,7.57,1.5,11.4.05.46-.28.95-1,1.37v-3.31c-.13-.01-.25-.02-.38-.03-.93,2.19-1.85,4.39-2.78,6.58l.4.53c.73-.57,1.46-1.15,2.35-1.85.18.08.99.25.99.44.04,2.25-.04,4.49-.07,6.74-.02.96,0,1.92,0,2.46-.95-.21-1.99-.72-2.84-.52-.52.13-.77,1.37-.99,1.8,1.49.29,2.9.18,3.24.73.45.73.16,1.99,0,2.99-.15.98-.8,1.94-.77,2.9.05,1.32.62,2.61-1.38,3.04-.28.06-.35,1.26-.44,1.94-.22,1.61-.4,3.23-.67,5.41-1.08-.95-1.58-1.39-2.24-1.96-.03.57-.21,1.18-.04,1.29,2.73,1.89.36,2.77-.62,4.18-1.42,2.04-2.34,4.43-3.69,6.52-.73,1.12-1.34,3.02-3.44,2.08-.04,4.29-2.69,7.14-6.17,9.32-2.85,1.79-5.81,3.41-8.84,4.87-1.42.68-3.1.91-4.69,1.06-.42.04-.98-.94-1.42-1.5-.34-.43-.58-.94-.86-1.41-.22.13-.44.25-.67.38.37.63.74,1.26,1.41,2.4-1.97.27-3.73.78-5.47.68-2.37-.14-4.75-.58-7.06-1.17-3.72-.95-7.16-2.56-9.86-5.42-.93-.98-2.02-1.87-2.68-3.01-.96-1.64-1.8-3.41-2.31-5.23-.59-2.11-2.47-3.62-2.17-6.24.26-2.29.85-3.17,3.12-2.32.18.07.45-.09,1.4-.31-2.02-.87-3.5-1.5-4.83-2.07,0-2.26-.07-4.37.04-6.47.04-.76.48-1.51.79-2.25,1.19-2.79,2.33-5.59,3.62-8.33,1.34-2.82,2.95-5.52,4.23-8.36,1.25-2.77,1.9-5.85,3.42-8.44,1.28-2.17,1.77-4.83,4.15-6.48,1.63-1.14,2.71-3.08,3.98-4.72,2.12-2.73,4.18-5.5,6.28-8.25.09-.12.4-.2.39-.27-.43-3.85,3.08-3.57,5.09-4.86.2-.13.37-.3.49-.4-.11-1.2-.22-2.33-.33-3.45,5.95,1.08,9.96-2.1,10-8.8-1.99.28-3.12,2.06-2.57,4.19-3.56-.16-5.45,2.28-7.37,4.69-.66.08-1.31.16-2.43.29.18.28.01-.02-.19-.29-.19-.25-.42-.47-.39-.44-1.42,2.52-2.85,5.06-4.3,7.64-1.17-.67-2.05-1.18-2.66-1.53.07-1.41.13-2.78.2-4.15-.35-.01-.7-.02-1.06-.03v4.23c-2.55,0-4.85,0-7.16,0-.25,0-.6-.07-.72.06-2.97,3.13-7.81,1.66-10.95,4.53-2.13,1.95-4.55,3.59-6.89,5.31-.66.49-1.49.75-2.65,1.31.09-1.28.14-2.08.19-2.87-.2-.13-.4-.26-.61-.4.1,4.88-2.82,7.58-6.43,10.1-.36-.94-.68-1.75-.96-2.46-1.99.9.73,5.36-4.06,4.24.1.82.23,1.63.27,2.44.02.33-.06.74-.26.99-1.18,1.47-2.74,2.74-3.55,4.38-1.19,2.42-2.7,4.48-4.46,6.5-1.03,1.18-1.25,3.07-1.85,4.63-1.25,3.22-2.74,6.37-3.69,9.68-.49,1.72-.04,3.72,0,5.59.08,3.3.21,6.6.27,9.91.05,2.6.03,5.2.03,7.8,0,2.79.08,5.59-.04,8.37-.04.95-.54,1.89-.7,2.39-2.44-.3-4.39-.67-6.36-.75-3.09-.13-6.19-.12-9.28-.08-1.92.02-3.86.4-5.77.28-3.03-.19-6.05-.66-9.07-1.01,0-.33,0-.66,0-.99ZM226.1,242.67c.51.11,1.03.22,1.97.42-.26-1.76-.49-3.36-.72-4.97-.21.04-.42.08-.63.11-.2,1.48-.41,2.96-.61,4.44-.48-2.27-2.16-3.91-3.68-3.3-1.07.43-1.91,1.45-2.87,2.21.44.65.79,1.15,1.15,1.68,1.84-2.17,2.26-2.15,4.18,0,.43-.22.82-.42,1.21-.62ZM208.68,243.42c.53-.63.98-.91,1.01-1.24.21-1.87.91-2.81,3.03-2.26.39.1,1.35-.95,1.63-1.64.79-1.99.78-4.38,3.24-5.42.41-.17.59-.95.82-1.48.65-1.54,1.3-3.09,1.89-4.66,1.03-2.7,2.35-5.35,2.92-8.15.37-1.83-.38-3.89-.69-6.31-1.14,1.01-2.25,1.7-2.95,2.68-1.81,2.54-3.34,5.27-5.15,7.81-1.03,1.45-3.52,2.17-2.03,4.69.05.08-.29.35-.37.56-.78,1.95-1.6,3.89-2.29,5.87-.55,1.56-.55,3.47-1.49,4.71-1.43,1.88-.31,3.06.45,4.82ZM283.11,238.96c.43.58.85.95.78,1.09-1.12,2.47-.48,4.35,1.72,5.89.34.24.15,1.2.24,1.82.1.65.24,1.3.36,1.95.26-.03.53-.06.79-.1,0-1.4.02-2.81-.02-4.21,0-.25-.27-.72-.38-.71-2.09.24-1.67-1.01-1.5-2.3.14-1.07.21-2.25-.1-3.25-.74-2.33-1.88-4.53-2.58-6.87-.63-2.11-.89-4.33-1.31-6.5-.26.04-.51.08-.77.12.55,5,1.1,10,1.69,15.38.39-.83.63-1.36,1.07-2.31ZM279.72,213.57c.27.05.55.1.82.15,1.23-5.91,2.47-11.82,3.79-18.15-2.77,1.61-.5,5.57-3.38,6.32-.36-1.27-.62-2.19-.89-3.11-.22.07-.44.13-.66.2-.76,4.4-.43,5.54,1.69,5.65-.46,1.45-1.11,2.87-1.34,4.35-.23,1.5-.05,3.06-.05,4.59ZM291.2,235.99c-2.35,4.56-1.53,19.16,1.14,20.05-.38-6.63-.75-13.24-1.14-20.05ZM240.43,176.42c-1.26.6-1.23,9.42.04,12.1.74-.83,1.43-1.6,2.48-2.77.85.98,1.7,1.96,2.54,2.92,1.61-3.16,1.69-3.83.53-4.79-.11,3.58-2.85-.03-4.16,1.51-.46-2.91-.93-5.83-1.42-8.97ZM239.96,205.29c.53.69,1.17,1.39,1.64,2.19.51.86.86,1.81,1.54,3.27.6-2.03.85-3.49,1.45-4.79,1.33-2.91,1.4-2.88.24-3.55-.34.88-.69,1.77-1.04,2.66-1.39-.58-2.78-1.16-4.29-1.8-.25.24-.83.65-1.24,1.2-.22.29-.15.81-.21,1.22.6-.13,1.21-.25,1.91-.4ZM287.56,236.05c1.76-4.73-1.35-8.72-1.54-12.99-.01-.27-.64-.5-1.03-.79-.19,2.16-.35,4.12-.55,6.4,3.59,1.1,1.29,4.88,3.12,7.39ZM276.61,184.33c1.77-4.59-1.04-9.37.77-14.27-2.09.97-2.47,9.75-.77,14.27ZM197.22,222.72c-.43.02-.87.04-1.3.07.36,3.7.14,7.47,1.76,11.04.28-.03.56-.06.83-.1-.43-3.67-.86-7.34-1.29-11.01ZM276.58,215.65c.62,4.42,1.21,8.61,1.79,12.8,1.22-3.88-.08-11.79-1.79-12.8ZM126.95,198.86c1.95-2.02,4.91-3.43,2.42-6.99-1.2,2.25-4.05,3.59-2.42,6.99ZM235.63,191.4c-1.48,2.63.34,4.06,1.55,5.55.31.39,1.51.06,2.31.06-1.74-1.72-1.1-4.88-3.85-5.61ZM284.4,209.07c-.31-.05-.63-.1-.94-.15-.32,2.11-.57,4.23-.96,6.33-.9,4.81-.93,4.89.16,5.51.57-3.81,1.16-7.75,1.75-11.68ZM175.37,168.49c-.82,3.15-1.56,6-2.5,9.59.82-.68,1.33-.89,1.47-1.25.77-1.98,1.46-4,2.16-6.01.22-.62.38-1.25.57-1.87-.68-.18-1.35-.36-1.71-.46ZM243.26,195.97c.25.68.47,1.29.68,1.89.27.02.53.04.8.06.49-2.07.97-4.14,1.46-6.22-.2-.08-.41-.15-.61-.23-.73,1.37-1.47,2.74-2.33,4.35-1.08-1.48-1.74-2.38-2.4-3.29-1.02,3.05.51,3.47,2.4,3.44ZM230.54,169.68c-.88,0-1.4-.02-1.91,0-.56.03-1.52-.04-1.61.2-.31.85-.5,1.82-.38,2.7.05.38.96.88,1.5.91,1.32.08,2.82-2.75,2.4-3.82ZM234.44,202.77c.56,1.37.99,2.4,1.41,3.43.32-.21.64-.42.96-.63-.1-1.08-.19-2.16-.29-3.21-3.29-.16-4.99,1.84-4.59,5.6.79-1.63,1.4-2.91,2.51-5.2ZM263.94,175.83c1.6.69,2.75,1.2,4.12,1.79-.08-.87-.19-1.57-.2-2.27,0-.69.1-1.39.15-2.08-.19-.04-.38-.09-.57-.13-.53.85-1.05,1.69-1.58,2.54-.2-.03-.41-.06-.61-.09.09-.76.19-1.52.3-2.41-.49-.08-1-.15-1.61-.25v2.89ZM234.71,217.33c1.03-1.65,2.04-3.14-.13-4.42-.39-.23-1.37-.09-1.67.24-.91,1.01,0,3.17,1.8,4.18ZM180.04,171.63c-.25-.2-.51-.4-.76-.6-.36.41-.91.76-1.06,1.24-.57,1.87-1.05,3.76-1.49,5.67-.1.45.08.97.13,1.45.43-.24,1.14-.4,1.25-.74.71-2.32,1.3-4.67,1.93-7.01ZM230.67,189.52c1.64-2.06,3.1-3.9,4.56-5.73-2.92.18-5.19,3.36-4.56,5.73ZM227.21,186.97c-.29-.02-.59-.04-.88-.06-.94,2.11-1.88,4.21-2.85,6.38,3.69.73,1.73-4.14,4.19-4.68-.15-.55-.31-1.1-.46-1.65ZM213.57,206.7c.29.1.57.21.86.31,1.96-2.25,1.27-5.44,2.5-7.95-.3-.1-.6-.21-.9-.31-.82,2.65-1.64,5.3-2.46,7.95ZM228.29,231.72c1.13-.08,2.07-.14,3.13-.21-.12-1.19-.24-2.33-.35-3.46-.95,1.43-1.99,1.22-3.25.16.18,1.33.31,2.33.47,3.51ZM285.73,171.13c-1.56-.59-2.28-.86-3.12-1.18-.73,1.61-1.38,3.02-2.02,4.43.19.02.38.05.57.07,1.39-1.01,2.78-2.02,4.57-3.32ZM193.14,221.99c-.28-.11-.57-.21-.85-.32-.54.98-1.45,1.95-1.47,2.93-.01.62,1.33,1.27,2.06,1.9.24-.14.47-.28.71-.42-.15-1.36-.3-2.73-.44-4.09ZM210.99,206.43c.38.13.77.25,1.15.38.75-2.2,1.51-4.4,2.26-6.6-.37-.12-.73-.25-1.1-.37-.77,2.2-1.54,4.4-2.31,6.6ZM228.38,194.59c-.73.94-1.39,1.74-1.99,2.59-.46.65-.85,1.34-1.27,2.02,3.14-.48,4.26-2.62,3.25-4.61ZM232.13,199.21c.23-.17.46-.35.69-.52.1-.91.5-1.91.24-2.7-.65-1.99-2.17-1.54-2.58-.13-.26.89,1.05,2.22,1.65,3.36ZM234.36,243.55c-.89-2.05-1.47-3.38-2.04-4.7-.1.13-.21.26-.31.4-.77-.41-1.53-.83-2.3-1.24l-.55.4c1.15,1.41,2.28,2.85,3.48,4.22.28.33.81.45,1.72.92ZM202.21,220.49c.93-1.1,1.2-5.01.48-5.7-.25-.24-.7-.39-1.04-.37-.19.01-.55.49-.51.7.3,1.73.68,3.44,1.07,5.37ZM251.07,179.66l.63.16c-.22-.88-.44-1.77-.66-2.65-.15-.61-.32-1.21-.48-1.82-.5.16-1.45.41-1.44.48.14.79.35,1.6.71,2.32.29.57.81,1.01,1.23,1.51ZM186.25,235.01c.73-1.29,1.41-2.15,1.7-3.13.28-.93,1.48-2.24-.73-2.98.12,2.1-2.49,3.62-.97,6.11ZM238.7,228.96c-2.86.57-3.3,1.98-1.54,5.15.55-1.86,1-3.35,1.54-5.15ZM288.12,254.04c-.41.07-.82.14-1.24.21.32,1.77.64,3.54.96,5.31.37-.06.75-.12,1.12-.18-.28-1.78-.56-3.56-.84-5.34ZM241.36,172.68c.13.93.11,1.95.45,2.83.36.93,1.07,1.73,1.74,2.75.65-3.05.11-4.31-2.19-5.59ZM210.64,249.42v3.63l.64.4c.67-1.02,1.35-2.04,2.02-3.05-.83-.3-1.65-.6-2.67-.97ZM217.23,182.59v6.25c2.12-1.51,2.32-3.56,0-6.25ZM181.82,183.06c.3.09.59.18.89.27.56-1.95,1.12-3.91,1.68-5.86-.4-.1-.79-.2-1.19-.3-.46,1.96-.92,3.92-1.38,5.89ZM170.48,198.67c.91-1.86,1.65-3.3,2.31-4.77.1-.21-.04-.7-.23-.83-.19-.14-.82-.07-.85.03-.52,1.68-2.42,3.03-1.23,5.57ZM278.06,238.71c-.18-.04-.37-.08-.55-.11v8.06c.18.01.37.02.55.03v-7.98ZM205.49,203.2c-.95.08-2.08-.09-2.24.23-.54,1.05-.72,2.29-1.04,3.45l.79.23c.7-1.1,1.41-2.21,2.49-3.91ZM240.61,218.34c.28.44.55.88.83,1.32,1-.79,2.01-1.56,2.96-2.4.05-.04-.36-.61-.56-.93-1.08.67-2.16,1.34-3.24,2.01ZM260.19,168.29c-.42-1.95,2.87-3.06,1.03-5.49q-2.48,3.67-1.03,5.49ZM234.66,175.75c-1.06,1.13-1.91,2.05-2.76,2.97.22.2.45.39.67.59,1.86-.13,3.2-.67,2.1-3.55ZM271.52,178.56c.41.14.81.27,1.22.41.37-1.53.73-3.06,1.1-4.59-.35-.1-.7-.2-1.04-.29-.42,1.49-.85,2.98-1.27,4.47ZM280.12,247.73c-.33-.05-.65-.1-.98-.16.14,1.8.26,3.6.46,5.39.04.38.4.71.93,1.59-.17-2.75-.29-4.79-.41-6.82ZM228.59,216.11c-1.42,1-2.45,1.72-3.61,2.54,2.42,1.34,2.99.94,3.61-2.54ZM294.95,261.37c-.53-.85-.94-1.6-1.47-2.25-.09-.11-.68.18-1.04.29.2.6.39,1.21.6,1.81.05.15.2.26.25.41.17.47.31.95.46,1.43.37-.52.74-1.05,1.2-1.69ZM202.86,223.63c-.4,1.84-.77,3.51-1.13,5.19.17.07.34.14.51.21.68-1.61,1.35-3.22,2.06-4.91-.45-.15-.91-.3-1.45-.49ZM205.84,218.84c.55,1.76.92,2.96,1.3,4.16.24-.07.47-.14.71-.21-.07-1.28,1.52-2.96-2.01-3.95ZM270.03,178.51c.23.06.46.12.7.19v-4.55c-.23-.01-.46-.02-.7-.04v4.4Z"/>
      <path class="cls-1" d="M295.27,216.81c-.41,1.05-.83,2.1-1.24,3.15l-.62.02c-.11-1.83-.34-3.66-.32-5.48.05-3.45.25-6.89.39-10.34,0-.08.03-.2-.01-.24-2.88-2.4-1.49-5.89-2.25-8.82-.04-.15-.15-.28-.24-.44-.32.24-.63.48-.94.71-.14-.25-.46-.67-.4-.73.72-.75.17-2.01.26-2.19,1.78-3.58-.38-6.78-.72-10.12-.04-.37.2-.77.4-1.43-.85.27-1.5.48-2.27.72-.41-1.71-.48-2.94.49-4.77,1.08-2.04.42-4.99.62-7.53.07-.86.4-1.72.75-2.52.07-.16,1.1-.19,1.19-.01,1.99,3.66,6.69,5.51,6.79,10.53.03,1.53,1.42,3,2.1,4.54.97,2.17,1.7,4.27.94,6.83-.33,1.11.79,2.66,1.24,4.01.17.52.57,1.12.44,1.56-.61,2.08.67,4.45-.97,6.36-.09.11-.15.43-.11.45,3.09,1.87-.46,5.14,1.82,7.18-.78.44-1.33.75-2.01,1.14.61.39,1.13.71,1.28.8v15.24c-2.89-1.28-.58-3.87-2.35-5.42v9.38c.54-.67.73-.94.96-1.18.27-.28.57-.53,1.05-.97.32.76.9,1.48.73,1.85-1.45,3.15-.37,6.31-.26,9.46.03.81.16,1.81-.23,2.4-1.77,2.62.15,5.15.02,7.72-.07,1.3.46,2.62.55,3.94.11,1.71.15,3.43.02,5.14-.04.52-.71,1-1.09,1.5-.16-.48-.31-.96-.48-1.43-1.06-2.97.35-6.51-2.17-9.19-.34-.36.02-1.32-.03-2-.22-2.86-.4-5.73-.73-8.58-.21-1.76-.76-3.48-.99-5.24-.37-2.83-.66-5.67-.9-8.52-.2-2.41-.27-4.83-.4-7.24-.11-.08-.21-.15-.32-.23Z"/>
    </g>
  </g>
</svg>