<?xml version="1.0" encoding="UTF-8"?>
<svg id="Camada_2" data-name="Camada 2" xmlns="http://www.w3.org/2000/svg" viewBox="0 0 124.38 74.5">
  <defs>
    <style>
      .cls-1 {
        fill: #603813;
      }
    </style>
  </defs>
  <g id="Camada_1-2" data-name="Camada 1">
    <path class="cls-1" d="M124.38,37.09c.12-14.89-2.67-24.7-8.79-30.87-4.04-4.07-9.39-6.22-15.48-6.22-8.08,0-16.05,2.06-23.58,6.03C72.04,2.74,65.64.2,56.55.2,40.71.2,26.8,9.12,16.74,21.05l-7.16-7.16H0v60.61h17.25v-13.23c0-8.14,4.85-19.54,12.08-28.35,8.06-9.83,17.98-15.47,27.22-15.47,1.65,0,4.51.04,6.19.68-7.7,7.75-15.63,16.98-18.7,26.38-3.91,11.99-2.16,21.8,4.83,26.9,2.79,2.04,6.24,3.09,9.92,3.09,1.78,0,3.61-.25,5.44-.75,4.72-1.29,13.49-5.42,19.21-18.66,4.08-9.46,4.82-21.63,3.11-34.76,4.2-1.92,8.76-3.08,13.56-3.08,1.87,0,2.66.54,3.23,1.12,1.18,1.19,3.9,5.37,3.79,18.59-.07,9.03,0,35.34,0,36.46l17.25-.05c0-.27-.07-27.33,0-36.27ZM68.4,48.18c-2.98,6.9-7.1,10.11-9.12,9.02-2.04-1.11-3.66-4.01,2.02-12.42,2.71-4.01,7.27-9.4,10.14-12.03.02,5.33-.96,10.62-3.04,15.44Z"/>
  </g>
</svg>